<svg xmlns="http://www.w3.org/2000/svg" width="43" height="42.989" viewBox="0 0 43 42.989"><g transform="translate(-4.61 -4.58)"><g transform="translate(6.11 6.08)"><path d="M32.8,47.569a1.5,1.5,0,0,1-1.106-.487c-1.831-2-3.7-3.011-5.566-3.012s-3.744,1.013-5.583,3.013a1.5,1.5,0,0,1-1.559.415,20.891,20.891,0,0,1-2.963-1.2,1.5,1.5,0,0,1-.827-1.464,9.261,9.261,0,0,0-.9-4.79,1.5,1.5,0,0,1,2.7-1.311,12.264,12.264,0,0,1,1.232,5.281q.4.172.805.325a12.986,12.986,0,0,1,3.014-2.226,8.5,8.5,0,0,1,8.163,0,12.949,12.949,0,0,1,3,2.223q.418-.157.828-.335a13,13,0,0,1,.562-3.688,8.512,8.512,0,0,1,5.774-5.77,12.949,12.949,0,0,1,3.673-.555q.177-.411.336-.83a12.977,12.977,0,0,1-2.226-3.016,8.5,8.5,0,0,1,.006-8.166,12.9,12.9,0,0,1,2.219-2.995q-.158-.417-.335-.828A12.947,12.947,0,0,1,40.37,17.6a8.789,8.789,0,0,1-3.62-2.144A8.8,8.8,0,0,1,34.6,11.833a13,13,0,0,1-.562-3.688q-.41-.178-.829-.335a12.986,12.986,0,0,1-3.014,2.226,8.5,8.5,0,0,1-8.163,0,12.949,12.949,0,0,1-3-2.223q-.418.157-.828.335a12.979,12.979,0,0,1-.563,3.686,8.807,8.807,0,0,1-2.155,3.624A8.8,8.8,0,0,1,11.855,17.6a12.954,12.954,0,0,1-3.67.556q-.177.414-.338.835A12.97,12.97,0,0,1,10.067,22a8.5,8.5,0,0,1-.006,8.166,12.9,12.9,0,0,1-2.214,2.989q.159.418.335.83a14.883,14.883,0,0,1,1.885.154,1.5,1.5,0,0,1-.434,2.968A11.887,11.887,0,0,0,7.3,37a1.5,1.5,0,0,1-1.431-.85,25.44,25.44,0,0,1-1.183-2.923A1.5,1.5,0,0,1,5.1,31.647c2-1.824,3.008-3.694,3.01-5.557S7.1,22.339,5.1,20.5a1.5,1.5,0,0,1-.408-1.58A25.439,25.439,0,0,1,5.871,16a1.5,1.5,0,0,1,1.416-.85c2.709.114,4.752-.5,6.074-1.815S15.3,9.967,15.187,7.254a1.5,1.5,0,0,1,.831-1.4,20.894,20.894,0,0,1,2.963-1.2,1.5,1.5,0,0,1,1.56.416c1.831,2,3.7,3.011,5.566,3.012s3.744-1.013,5.583-3.013a1.5,1.5,0,0,1,1.559-.415,20.894,20.894,0,0,1,2.963,1.2,1.5,1.5,0,0,1,.831,1.4c-.11,2.716.5,4.762,1.826,6.081s3.359,1.925,6.064,1.811a1.5,1.5,0,0,1,1.409.837,22.046,22.046,0,0,1,1.195,2.951,1.5,1.5,0,0,1-.415,1.568c-2,1.824-3.008,3.694-3.01,5.557s1.011,3.751,3.013,5.59a1.5,1.5,0,0,1,.413,1.565,22.048,22.048,0,0,1-1.195,2.951A1.5,1.5,0,0,1,44.933,37c-2.705-.114-4.746.5-6.064,1.811s-1.936,3.365-1.826,6.081a1.5,1.5,0,0,1-.831,1.4,20.9,20.9,0,0,1-2.963,1.2A1.5,1.5,0,0,1,32.8,47.569Z" transform="translate(-6.11 -6.08)" fill="#242424"/><path d="M26.116,35.487a9.441,9.441,0,0,1-3.35-.614,1.5,1.5,0,0,1,1.065-2.8,6.484,6.484,0,1,0-4.174-5.075,1.5,1.5,0,1,1-2.964.465,9.536,9.536,0,1,1,9.423,8.028Z" transform="translate(-6.081 -6.051)" fill="#242424"/></g></g></svg>