<svg xmlns="http://www.w3.org/2000/svg" width="182" height="68.486" viewBox="0 0 182 68.486"><g transform="translate(-1936 10513.243)"><g transform="translate(1910 -7477)"><g transform="translate(86 -3032)"><path d="M0,4.205A3,3,0,0,1-2.985,1.5,3,3,0,0,1-.3-1.78C.2-1.83,12.037-3,24.1-3S48-1.83,48.5-1.78a3,3,0,0,1-.6,5.97C47.784,4.178,35.853,3,24.1,3S.418,4.178.3,4.19Q.146,4.205,0,4.205Z" transform="translate(25.917 0) rotate(45)" fill="#f59dd9"/><path d="M0,4.205A3,3,0,0,1-2.985,1.5,3,3,0,0,1-.3-1.78C.2-1.83,12.039-3,24.1-3S48-1.83,48.5-1.78a3,3,0,0,1-.6,5.97C47.784,4.178,35.853,3,24.1,3S.418,4.178.3,4.19Q.146,4.205,0,4.205Z" transform="translate(0 34.083) rotate(-45)" fill="#f59dd9"/><path d="M0,4.205A3,3,0,0,1-2.985,1.5,3,3,0,0,1-.3-1.78C.2-1.83,12.039-3,24.1-3S48-1.83,48.5-1.78a3,3,0,0,1-.6,5.97C47.784,4.178,35.853,3,24.1,3S.418,4.178.3,4.19Q.146,4.205,0,4.205Z" transform="translate(60 25.917) rotate(135)" fill="#f59dd9"/><path d="M0,4.205A3,3,0,0,1-2.985,1.5,3,3,0,0,1-.3-1.78C.2-1.83,12.037-3,24.1-3S48-1.83,48.5-1.78a3,3,0,0,1-.6,5.97C47.784,4.178,35.853,3,24.1,3S.418,4.178.3,4.19Q.146,4.205,0,4.205Z" transform="translate(34.083 60) rotate(-135)" fill="#f59dd9"/></g><g transform="translate(112.4 -3005.6)"><path d="M7.2,10.2a2.991,2.991,0,0,1-2.121-.879l-7.2-7.2a3,3,0,0,1,0-4.243,3,3,0,0,1,4.243,0l7.2,7.2A3,3,0,0,1,7.2,10.2Z" transform="translate(0)" fill="#f59dd9"/><path d="M7.2,10.2a2.991,2.991,0,0,1-2.121-.879l-7.2-7.2a3,3,0,0,1,0-4.243,3,3,0,0,1,4.243,0l7.2,7.2A3,3,0,0,1,7.2,10.2Z" transform="translate(7.2 0) rotate(90)" fill="#f59dd9"/></g></g><text transform="translate(1936 -10461)" fill="#fff" font-size="48" font-family="HannotateTC-W5, Hannotate TC"><tspan x="0" y="0">ZABTON</tspan></text></g></svg>