<svg xmlns="http://www.w3.org/2000/svg" width="57.071" height="57.071" viewBox="0 0 57.071 57.071"><g transform="translate(-176.464 -347.464)"><g transform="translate(94 3383)"><g transform="translate(86 -3032)"><path d="M40.171,3.5q-.125,0-.252-.013c-.1-.01-10.041-.992-19.835-.992S.348,3.482.249,3.492A2.5,2.5,0,0,1-2.488,1.253,2.5,2.5,0,0,1-.249-1.483C.166-1.525,10.033-2.5,20.084-2.5S40-1.525,40.416-1.483A2.5,2.5,0,0,1,40.171,3.5Z" transform="translate(21.597 0) rotate(45)" fill="#242424"/><path d="M40.171,3.5q-.125,0-.252-.013c-.1-.01-10.041-.992-19.835-.992S.348,3.482.249,3.492A2.5,2.5,0,0,1-2.488,1.253,2.5,2.5,0,0,1-.249-1.483C.166-1.525,10.033-2.5,20.084-2.5S40-1.525,40.416-1.483A2.5,2.5,0,0,1,40.171,3.5Z" transform="translate(0 28.403) rotate(-45)" fill="#242424"/><path d="M40.171,3.5q-.125,0-.252-.013c-.1-.01-10.041-.992-19.835-.992S.348,3.482.249,3.492A2.5,2.5,0,0,1-2.488,1.253,2.5,2.5,0,0,1-.249-1.483C.166-1.525,10.033-2.5,20.084-2.5S40-1.525,40.416-1.483A2.5,2.5,0,0,1,40.171,3.5Z" transform="translate(50 21.597) rotate(135)" fill="#242424"/><path d="M40.171,3.5q-.125,0-.252-.013c-.1-.01-10.041-.992-19.835-.992S.348,3.482.249,3.492A2.5,2.5,0,0,1-2.488,1.253,2.5,2.5,0,0,1-.249-1.483C.166-1.525,10.033-2.5,20.084-2.5S40-1.525,40.416-1.483A2.5,2.5,0,0,1,40.171,3.5Z" transform="translate(28.403 50) rotate(-135)" fill="#242424"/></g><g transform="translate(108 -3010)"><path d="M6,8.5a2.492,2.492,0,0,1-1.768-.732l-6-6a2.5,2.5,0,0,1,0-3.536,2.5,2.5,0,0,1,3.536,0l6,6A2.5,2.5,0,0,1,6,8.5Z" transform="translate(0)" fill="#242424"/><path d="M6,8.5a2.492,2.492,0,0,1-1.768-.732l-6-6a2.5,2.5,0,0,1,0-3.536,2.5,2.5,0,0,1,3.536,0l6,6A2.5,2.5,0,0,1,6,8.5Z" transform="translate(6 0) rotate(90)" fill="#242424"/></g></g></g></svg>