<svg xmlns="http://www.w3.org/2000/svg" width="33" height="42.322" viewBox="0 0 33 42.322"><g transform="translate(-7.5 -3.679)"><g transform="translate(9 5.179)"><path d="M24,46a6.021,6.021,0,0,1-5.664-4,1.5,1.5,0,0,1,2.827-1,3.01,3.01,0,0,0,5.673,0,1.5,1.5,0,1,1,2.827,1A6.021,6.021,0,0,1,24,46Z" transform="translate(-9 -5.179)"/><path d="M39,37.5H9A1.5,1.5,0,0,1,7.5,36V32c0-1.537,1.012-2.951,1.906-4.2a7.616,7.616,0,0,0,1.094-1.81V20A13.518,13.518,0,0,1,18.767,7.58a5.5,5.5,0,0,1,10.527,0A13.5,13.5,0,0,1,37.5,20a1.5,1.5,0,0,1-3,0,10.518,10.518,0,0,0-7-9.9,1.5,1.5,0,0,1-.989-1.231,2.5,2.5,0,0,0-4.962,0,1.5,1.5,0,0,1-1,1.233A10.512,10.512,0,0,0,13.5,20v6c0,1.237-.8,2.36-1.655,3.548A6.613,6.613,0,0,0,10.5,32v2.5h27V32a6.27,6.27,0,0,0-1.275-2.311,13,13,0,0,1-1.3-2.064,1.5,1.5,0,1,1,2.727-1.249,10.9,10.9,0,0,0,1.008,1.563C39.523,29.138,40.5,30.5,40.5,32v4A1.5,1.5,0,0,1,39,37.5Z" transform="translate(-9 -5.179)"/></g></g></svg>